<mxfile host="app.diagrams.net" agent="Mozilla/5.0 (Windows NT 10.0; Win64; x64) AppleWebKit/537.36 (KHTML, like Gecko) Chrome/139.0.0.0 Safari/537.36" version="28.1.0">
  <diagram name="Page-1" id="Jm1jY8U9DjO6IGGfGV-2">
    <mxGraphModel dx="872" dy="471" grid="1" gridSize="10" guides="1" tooltips="1" connect="1" arrows="1" fold="1" page="1" pageScale="1" pageWidth="850" pageHeight="1100" math="0" shadow="0">
      <root>
        <mxCell id="0" />
        <mxCell id="1" parent="0" />
        <mxCell id="LN8UxnWlFc2pgbiCI3Nf-4" style="edgeStyle=orthogonalEdgeStyle;rounded=0;orthogonalLoop=1;jettySize=auto;html=1;entryX=0.5;entryY=0;entryDx=0;entryDy=0;" parent="1" edge="1">
          <mxGeometry relative="1" as="geometry">
            <mxPoint x="380" y="90" as="sourcePoint" />
            <mxPoint x="380" y="120" as="targetPoint" />
          </mxGeometry>
        </mxCell>
        <mxCell id="kcXY8o-RUrtgpFotuQXC-9" style="edgeStyle=orthogonalEdgeStyle;rounded=0;orthogonalLoop=1;jettySize=auto;html=1;exitX=0.5;exitY=1;exitDx=0;exitDy=0;entryX=0.5;entryY=0;entryDx=0;entryDy=0;" edge="1" parent="1" source="kcXY8o-RUrtgpFotuQXC-1" target="kcXY8o-RUrtgpFotuQXC-2">
          <mxGeometry relative="1" as="geometry" />
        </mxCell>
        <mxCell id="kcXY8o-RUrtgpFotuQXC-1" value="&#xa;Gather flour, yeast, water, salt, olive oil, sauce, cheese, toppings.&#xa;&#xa;" style="rounded=0;whiteSpace=wrap;html=1;" vertex="1" parent="1">
          <mxGeometry x="320" y="110" width="120" height="70" as="geometry" />
        </mxCell>
        <mxCell id="kcXY8o-RUrtgpFotuQXC-10" style="edgeStyle=orthogonalEdgeStyle;rounded=0;orthogonalLoop=1;jettySize=auto;html=1;exitX=0.5;exitY=1;exitDx=0;exitDy=0;entryX=0.5;entryY=0;entryDx=0;entryDy=0;" edge="1" parent="1" source="kcXY8o-RUrtgpFotuQXC-2" target="kcXY8o-RUrtgpFotuQXC-3">
          <mxGeometry relative="1" as="geometry" />
        </mxCell>
        <mxCell id="kcXY8o-RUrtgpFotuQXC-2" value="&#xa;Mix flour, yeast, salt, and water. Knead until smooth.&#xa;&#xa;" style="rounded=0;whiteSpace=wrap;html=1;" vertex="1" parent="1">
          <mxGeometry x="320" y="190" width="120" height="60" as="geometry" />
        </mxCell>
        <mxCell id="kcXY8o-RUrtgpFotuQXC-11" style="edgeStyle=orthogonalEdgeStyle;rounded=0;orthogonalLoop=1;jettySize=auto;html=1;exitX=0.5;exitY=1;exitDx=0;exitDy=0;entryX=0.5;entryY=0;entryDx=0;entryDy=0;" edge="1" parent="1" source="kcXY8o-RUrtgpFotuQXC-3" target="kcXY8o-RUrtgpFotuQXC-4">
          <mxGeometry relative="1" as="geometry" />
        </mxCell>
        <mxCell id="kcXY8o-RUrtgpFotuQXC-3" value="&#xa;Cover and let rest for 1–2 hours.&#xa;&#xa;" style="rounded=0;whiteSpace=wrap;html=1;" vertex="1" parent="1">
          <mxGeometry x="320" y="270" width="120" height="60" as="geometry" />
        </mxCell>
        <mxCell id="kcXY8o-RUrtgpFotuQXC-12" style="edgeStyle=orthogonalEdgeStyle;rounded=0;orthogonalLoop=1;jettySize=auto;html=1;exitX=0.5;exitY=1;exitDx=0;exitDy=0;entryX=0.5;entryY=0;entryDx=0;entryDy=0;" edge="1" parent="1" source="kcXY8o-RUrtgpFotuQXC-4" target="kcXY8o-RUrtgpFotuQXC-6">
          <mxGeometry relative="1" as="geometry" />
        </mxCell>
        <mxCell id="kcXY8o-RUrtgpFotuQXC-4" value="&lt;br&gt;Set oven to 220°C.&lt;div&gt;&lt;br/&gt;&lt;/div&gt;" style="rounded=0;whiteSpace=wrap;html=1;" vertex="1" parent="1">
          <mxGeometry x="320" y="350" width="120" height="60" as="geometry" />
        </mxCell>
        <mxCell id="kcXY8o-RUrtgpFotuQXC-13" style="edgeStyle=orthogonalEdgeStyle;rounded=0;orthogonalLoop=1;jettySize=auto;html=1;exitX=0.5;exitY=1;exitDx=0;exitDy=0;entryX=0.5;entryY=0;entryDx=0;entryDy=0;" edge="1" parent="1" source="kcXY8o-RUrtgpFotuQXC-6" target="kcXY8o-RUrtgpFotuQXC-7">
          <mxGeometry relative="1" as="geometry" />
        </mxCell>
        <mxCell id="kcXY8o-RUrtgpFotuQXC-6" value="&#xa;Flatten into a circle or rectangle.&#xa;&#xa;" style="rounded=0;whiteSpace=wrap;html=1;" vertex="1" parent="1">
          <mxGeometry x="320" y="430" width="120" height="60" as="geometry" />
        </mxCell>
        <mxCell id="kcXY8o-RUrtgpFotuQXC-14" style="edgeStyle=orthogonalEdgeStyle;rounded=0;orthogonalLoop=1;jettySize=auto;html=1;exitX=0.5;exitY=1;exitDx=0;exitDy=0;entryX=0.5;entryY=0;entryDx=0;entryDy=0;" edge="1" parent="1" source="kcXY8o-RUrtgpFotuQXC-7" target="kcXY8o-RUrtgpFotuQXC-8">
          <mxGeometry relative="1" as="geometry" />
        </mxCell>
        <mxCell id="kcXY8o-RUrtgpFotuQXC-7" value="&#xa;Spread evenly on dough.&#xa;&#xa;" style="rounded=0;whiteSpace=wrap;html=1;" vertex="1" parent="1">
          <mxGeometry x="320" y="510" width="120" height="60" as="geometry" />
        </mxCell>
        <mxCell id="kcXY8o-RUrtgpFotuQXC-17" style="edgeStyle=orthogonalEdgeStyle;rounded=0;orthogonalLoop=1;jettySize=auto;html=1;exitX=0.5;exitY=1;exitDx=0;exitDy=0;entryX=0.5;entryY=0;entryDx=0;entryDy=0;" edge="1" parent="1" source="kcXY8o-RUrtgpFotuQXC-8" target="kcXY8o-RUrtgpFotuQXC-16">
          <mxGeometry relative="1" as="geometry" />
        </mxCell>
        <mxCell id="kcXY8o-RUrtgpFotuQXC-8" value="&#xa;Cheese, veggies, meat, etc.&#xa;&#xa;" style="rounded=0;whiteSpace=wrap;html=1;" vertex="1" parent="1">
          <mxGeometry x="320" y="590" width="120" height="50" as="geometry" />
        </mxCell>
        <mxCell id="kcXY8o-RUrtgpFotuQXC-15" value="Ready to make pizza?" style="ellipse;whiteSpace=wrap;html=1;" vertex="1" parent="1">
          <mxGeometry x="320" y="50" width="120" height="50" as="geometry" />
        </mxCell>
        <mxCell id="kcXY8o-RUrtgpFotuQXC-19" style="edgeStyle=orthogonalEdgeStyle;rounded=0;orthogonalLoop=1;jettySize=auto;html=1;exitX=0.5;exitY=1;exitDx=0;exitDy=0;entryX=0.5;entryY=0;entryDx=0;entryDy=0;" edge="1" parent="1" source="kcXY8o-RUrtgpFotuQXC-16" target="kcXY8o-RUrtgpFotuQXC-18">
          <mxGeometry relative="1" as="geometry" />
        </mxCell>
        <mxCell id="kcXY8o-RUrtgpFotuQXC-16" value="&#xa;12–15 minutes or until golden.&#xa;&#xa;" style="rounded=0;whiteSpace=wrap;html=1;" vertex="1" parent="1">
          <mxGeometry x="320" y="660" width="120" height="60" as="geometry" />
        </mxCell>
        <mxCell id="kcXY8o-RUrtgpFotuQXC-21" style="edgeStyle=orthogonalEdgeStyle;rounded=0;orthogonalLoop=1;jettySize=auto;html=1;exitX=0.5;exitY=1;exitDx=0;exitDy=0;entryX=0.5;entryY=0;entryDx=0;entryDy=0;" edge="1" parent="1" source="kcXY8o-RUrtgpFotuQXC-18">
          <mxGeometry relative="1" as="geometry">
            <mxPoint x="380" y="820" as="targetPoint" />
          </mxGeometry>
        </mxCell>
        <mxCell id="kcXY8o-RUrtgpFotuQXC-18" value="&#xa;Use pizza cutter, enjoy.&#xa;&#xa;" style="rounded=0;whiteSpace=wrap;html=1;" vertex="1" parent="1">
          <mxGeometry x="320" y="740" width="120" height="60" as="geometry" />
        </mxCell>
        <mxCell id="kcXY8o-RUrtgpFotuQXC-24" value="Pizza is ready!" style="ellipse;whiteSpace=wrap;html=1;" vertex="1" parent="1">
          <mxGeometry x="320" y="820" width="120" height="80" as="geometry" />
        </mxCell>
      </root>
    </mxGraphModel>
  </diagram>
</mxfile>
